<svg width="24" height="21" viewBox="0 0 24 21" fill="none" xmlns="http://www.w3.org/2000/svg">
<path d="M1.00586 10.7812C0.380859 10.7812 0 10.3516 0 9.84375C0 9.57031 0.126953 9.28711 0.380859 9.07227L10.5566 0.527344C10.9863 0.175781 11.4551 0 11.9238 0C12.3926 0 12.8613 0.175781 13.291 0.527344L18.1152 4.58984V2.85156C18.1152 2.42188 18.4082 2.13867 18.8477 2.13867H20.166C20.5957 2.13867 20.8789 2.42188 20.8789 2.85156V6.9043L23.4668 9.07227C23.7207 9.28711 23.8477 9.57031 23.8477 9.84375C23.8477 10.3516 23.4668 10.7812 22.8516 10.7812C22.5488 10.7812 22.2754 10.625 22.041 10.4199L20.8789 9.45312V18.623C20.8789 20.0684 20.0098 20.918 18.5352 20.918H5.32227C3.83789 20.918 2.96875 20.0684 2.96875 18.623V9.45312L1.80664 10.4199C1.57227 10.625 1.30859 10.7812 1.00586 10.7812ZM14.7461 13.3301V19.0039H18.0273C18.6328 19.0039 18.9648 18.6621 18.9648 18.0469V7.8418L12.3438 2.28516C12.207 2.16797 12.0605 2.11914 11.9238 2.11914C11.7871 2.11914 11.6406 2.16797 11.5137 2.28516L4.88281 7.8418V18.0469C4.88281 18.6621 5.21484 19.0039 5.82031 19.0039H9.10156V13.3301C9.10156 12.8711 9.4043 12.5781 9.86328 12.5781H13.9941C14.4531 12.5781 14.7461 12.8711 14.7461 13.3301Z" fill="#353536"/>
</svg>
