<svg width="24" height="24" viewBox="0 0 36 36" fill="none" xmlns="http://www.w3.org/2000/svg">
<path d="M23.5 7C29.3447 7 34.0928 11.748 34.0928 17.5928C34.0925 23.4373 29.3446 28.1846 23.5 28.1846C17.6554 28.1846 12.9085 23.4373 12.9082 17.5928C12.9082 11.748 17.6553 7 23.5 7ZM12.1025 25.001C12.6067 25.0523 13 25.4784 13 25.9961C13 26.5138 12.6067 26.9399 12.1025 26.9912L12 26.9961H7C6.44772 26.9961 6 26.5484 6 25.9961C6 25.4438 6.44772 24.9961 7 24.9961H12L12.1025 25.001ZM20.3008 23.1504L21.0088 26.1855C21.7982 26.4213 22.6389 26.5439 23.5 26.5439C24.3613 26.5439 25.2026 26.4214 25.9922 26.1855L26.6895 23.1914L25.3359 21.4688H21.6133L20.3008 23.1504ZM27.2432 17.3057L26.207 20.5254L27.6631 22.4014L31.0166 22.4531C31.9189 21.0483 32.4521 19.3867 32.4521 17.6025L29.96 16.208L27.2432 17.3057ZM14.5488 17.6025C14.5591 19.3765 15.0718 21.0278 15.9639 22.4121L19.3271 22.3604L20.7832 20.4844L19.7578 17.3057L17.04 16.208L14.5488 17.6025ZM8.10254 16.001C8.60667 16.0523 9 16.4784 9 16.9961C9 17.5138 8.60667 17.9399 8.10254 17.9912L8 17.9961H3C2.44772 17.9961 2 17.5484 2 16.9961C2 16.4438 2.44772 15.9961 3 15.9961H8L8.10254 16.001ZM20.3525 9.21484C18.8556 9.76852 17.5532 10.7223 16.5586 11.9424L17.502 15.0391L20.1064 16.0957L22.875 13.9629V11.2451L20.3525 9.21484ZM24.126 11.2246V13.9629L26.8945 16.0957L29.499 15.0391L30.4424 11.9424C29.4479 10.7223 28.135 9.76907 26.6279 9.20508L24.126 11.2246ZM12.1025 8.00098C12.6067 8.05231 13 8.47842 13 8.99609C13 9.51377 12.6067 9.93988 12.1025 9.99121L12 9.99609H7C6.44772 9.99609 6 9.54838 6 8.99609C6 8.44381 6.44772 7.99609 7 7.99609H12L12.1025 8.00098Z" fill="currentColor"/>
</svg>
