<svg xmlns="http://www.w3.org/2000/svg" fill="none" viewBox="0 0 24 24" height="24" width="24">
  <g id="cottage">
    <path id="Union" fill="#000000" d="M10.7871 3.66626c0.716 -0.54551 1.7088 -0.54549 2.4248 0l9.0537 6.89844c0.4391 0.3347 0.524 0.9621 0.1895 1.4014 -0.3347 0.439 -0.9622 0.5238 -1.4014 0.1894L20 11.3518v7.6484c-0.0001 1.1045 -0.8955 2 -2 2h-4.001c-0.552 -0.0002 -0.9998 -0.4479 -1 -1v-3h-2v3c-0.0001 0.5522 -0.4478 1 -0.99998 1H6c-1.10447 0 -1.99987 -0.8955 -2 -2v-7.6484l-1.05371 0.8037c-0.43925 0.3346 -1.06765 0.2497 -1.40234 -0.1894 -0.33437 -0.4392 -0.2494 -1.0667 0.18945 -1.4014L4 8.83716V5.00024c0 -0.55228 0.44772 -1 1 -1h2c0.55208 0.00024 1 0.44787 1 1v0.78907zM6 9.82837v9.17183h2.99902v-3c0 -0.5521 0.44791 -0.9997 1 -1H13.999c0.5523 0 1 0.4478 1 1v3H18V9.82837l-6 -4.57129z" stroke-width="1"></path>
  </g>
</svg>