<svg xmlns="http://www.w3.org/2000/svg" fill="none" viewBox="0 0 24 24" height="24" width="24">
  <g id="home">
    <path id="Union" fill="#000000" d="M10.7876 3.66609c0.7159 -0.54548 1.7088 -0.54542 2.4248 0l9.0537 6.89841c0.4392 0.3347 0.524 0.9621 0.1895 1.4014 -0.3347 0.4391 -0.9622 0.524 -1.4014 0.1894l-1.0537 -0.8037v7.6485c0 1.1045 -0.8955 1.9999 -2 2h-4.001c-0.5521 -0.0002 -1 -0.4479 -1 -1v-5h-2v5c0 0.5522 -0.4478 0.9999 -0.99999 1H6.00049c-1.10455 0 -1.99996 -0.8955 -2 -2v-7.6485l-1.05371 0.8037c-0.4393 0.3346 -1.06768 0.2498 -1.40235 -0.1894 -0.3343 -0.4391 -0.24936 -1.0667 0.18946 -1.4014zM6.00049 9.8282v9.1719h2.99902v-5c0 -0.5522 0.44789 -0.9998 1 -1h3.99999c0.5522 0.0001 1 0.4477 1 1v5h3.001V9.8282l-6 -4.57129z" stroke-width="1"></path>
  </g>
</svg>