<svg xmlns="http://www.w3.org/2000/svg" fill="none" viewBox="0 0 24 24" height="24" width="24">
  <g id="sparkle">
    <path id="Union" fill="#000000" d="M6.5 13.5c0.37877 0 0.72514 0.214 0.89453 0.5527l0.85059 1.7012 1.70215 0.8516c0.33873 0.1694 0.55273 0.5157 0.55273 0.8945s-0.214 0.7251 -0.55273 0.8945l-1.70215 0.8506 -0.85059 1.7022c-0.16939 0.3387 -0.51576 0.5527 -0.89453 0.5527s-0.72514 -0.214 -0.89453 -0.5527l-0.85156 -1.7022 -1.70118 -0.8506C2.71395 18.2251 2.5 17.8788 2.5 17.5s0.21395 -0.7251 0.55273 -0.8945l1.70118 -0.8516 0.85156 -1.7012 0.07129 -0.1211c0.18493 -0.2679 0.49178 -0.4316 0.82324 -0.4316M16 6c0.3788 0 0.7251 0.21395 0.8945 0.55273l1.3506 2.70118 2.7022 1.35159c0.3387 0.1694 0.5527 0.5157 0.5527 0.8945s-0.214 0.7251 -0.5527 0.8945l-2.7022 1.3506 -1.3506 2.7022C16.7251 16.786 16.3788 17 16 17s-0.7251 -0.214 -0.8945 -0.5527l-1.3516 -2.7022 -2.7012 -1.3506c-0.3387 -0.1694 -0.5527 -0.5157 -0.5527 -0.8945s0.214 -0.7251 0.5527 -0.8945l2.7012 -1.35159 1.3516 -2.70118 0.0713 -0.12109C15.3617 6.16367 15.6685 6 16 6m-0.6055 4.4473c-0.0967 0.1935 -0.2537 0.3505 -0.4472 0.4472l-1.211 0.6055 1.211 0.6055 0.1377 0.084c0.1302 0.094 0.237 0.2181 0.3095 0.3632L16 13.7637l0.6055 -1.211c0.0967 -0.1935 0.2537 -0.3505 0.4472 -0.4472l1.211 -0.6055 -1.211 -0.6055c-0.1935 -0.0967 -0.3505 -0.2537 -0.4472 -0.4472L16 9.23633zM6.5 2.5c0.37877 0 0.72514 0.21395 0.89453 0.55273l0.85059 1.70118 1.70215 0.85156c0.33873 0.16939 0.55273 0.51576 0.55273 0.89453s-0.214 0.72514 -0.55273 0.89453l-1.70215 0.85059 -0.85059 1.70215C7.22514 10.286 6.87877 10.5 6.5 10.5s-0.72514 -0.214 -0.89453 -0.55273l-0.85156 -1.70215 -1.70118 -0.85059C2.71395 7.22514 2.5 6.87877 2.5 6.5s0.21395 -0.72514 0.55273 -0.89453l1.70118 -0.85156 0.85156 -1.70118 0.07129 -0.12109C5.86169 2.66367 6.16854 2.5 6.5 2.5" stroke-width="1"></path>
  </g>
</svg>