<svg width="21" height="21" viewBox="0 0 21 21" fill="none" xmlns="http://www.w3.org/2000/svg">
<path d="M10.3594 20.7187C4.64141 20.7187 0 16.0773 0 10.3594C0 4.64141 4.64141 0 10.3594 0C16.0773 0 20.7188 4.64141 20.7188 10.3594C20.7188 16.0773 16.0773 20.7187 10.3594 20.7187ZM10.3594 18.9922C15.1328 18.9922 18.9922 15.1328 18.9922 10.3594C18.9922 5.58594 15.1328 1.72656 10.3594 1.72656C5.58594 1.72656 1.72656 5.58594 1.72656 10.3594C1.72656 15.1328 5.58594 18.9922 10.3594 18.9922ZM7.43437 15.6C6.84531 16.0469 6.21562 15.5797 6.44922 14.8891L7.59687 11.4461L4.65156 9.34375C4.10312 8.9375 4.28594 8.15547 5.02734 8.16562L8.64297 8.19609L9.75 4.73281C9.96328 4.0625 10.7352 4.0625 10.9484 4.73281L12.0555 8.19609L15.6711 8.16562C16.4227 8.15547 16.5852 8.94766 16.0469 9.34375L13.1016 11.4461L14.2594 14.8891C14.4828 15.5797 13.8633 16.0469 13.2641 15.6L10.3492 13.457L7.43437 15.6Z" fill="#43566B"/>
</svg>
