<svg width="20" height="22" viewBox="0 0 20 22" fill="none" xmlns="http://www.w3.org/2000/svg">
<path d="M0 3.36914C0 2.28516 0.693359 1.61133 1.82617 1.61133H3.68164C3.88672 0.595703 4.63867 0 5.84961 0H13.7012C14.9219 0 15.6738 0.605469 15.8691 1.61133H17.7246C18.8574 1.61133 19.5508 2.28516 19.5508 3.36914C19.5508 7.34375 17.5879 9.90234 13.7109 11.1133C13.2031 11.7676 12.6172 12.2949 12.0605 12.6855V16.6309H13.2031C14.5996 16.6309 15.3613 17.4609 15.3613 18.7891V20.8496C15.3613 21.3672 14.9609 21.7188 14.4727 21.7188H5.07812C4.58984 21.7188 4.18945 21.3672 4.18945 20.8496V18.7891C4.18945 17.4609 4.95117 16.6309 6.34766 16.6309H7.49023V12.6758C6.93359 12.2949 6.35742 11.7676 5.84961 11.1133C1.96289 9.90234 0 7.34375 0 3.36914ZM5.35156 5.40039C5.35156 8.84766 8.49609 11.8555 9.77539 11.8555C11.0547 11.8555 14.1992 8.84766 14.1992 5.40039V2.32422C14.1992 1.98242 13.9648 1.75781 13.623 1.75781H5.92773C5.58594 1.75781 5.35156 1.98242 5.35156 2.32422V5.40039ZM1.63086 3.59375C1.63086 6.09375 2.60742 7.85156 4.47266 8.84766C3.93555 7.75391 3.60352 6.48438 3.60352 5.12695V3.33008H1.9043C1.73828 3.33008 1.63086 3.4375 1.63086 3.59375ZM15.0781 8.84766C16.9434 7.85156 17.9199 6.09375 17.9199 3.59375C17.9199 3.4375 17.8125 3.33008 17.6465 3.33008H15.9473V5.12695C15.9473 6.48438 15.6152 7.75391 15.0781 8.84766ZM9.16016 16.6309H10.3906V13.5059C10.1758 13.5645 9.9707 13.5938 9.77539 13.5938C9.58008 13.5938 9.375 13.5645 9.16016 13.5059V16.6309ZM5.9375 19.9707H13.6133V18.9355C13.6133 18.6035 13.3887 18.3887 13.0566 18.3887H6.49414C6.16211 18.3887 5.9375 18.6035 5.9375 18.9355V19.9707Z" fill="#353536"/>
</svg>
