<svg width="41" height="22" viewBox="0 0 41 22" fill="none" xmlns="http://www.w3.org/2000/svg">
<path d="M29.5 0C35.3447 0 40.0928 4.74805 40.0928 10.5928C40.0925 16.4373 35.3446 21.1846 29.5 21.1846C23.6554 21.1846 18.9085 16.4373 18.9082 10.5928C18.9082 4.74805 23.6553 0 29.5 0ZM18 17.9961C18.5523 17.9961 19 18.4438 19 18.9961C19 19.5484 18.5523 19.9961 18 19.9961H8C7.44772 19.9961 7 19.5484 7 18.9961C7 18.4438 7.44772 17.9961 8 17.9961H18ZM26.3008 16.1504L27.0088 19.1855C27.7982 19.4213 28.6389 19.5439 29.5 19.5439C30.3613 19.5439 31.2026 19.4214 31.9922 19.1855L32.6895 16.1914L31.3359 14.4688H27.6133L26.3008 16.1504ZM33.2432 10.3057L32.207 13.5254L33.6631 15.4014L37.0166 15.4531C37.9189 14.0483 38.4521 12.3867 38.4521 10.6025L35.96 9.20801L33.2432 10.3057ZM20.5488 10.6025C20.5591 12.3765 21.0718 14.0278 21.9639 15.4121L25.3271 15.3604L26.7832 13.4844L25.7578 10.3057L23.04 9.20801L20.5488 10.6025ZM12.1025 9.00098C12.6067 9.05231 13 9.47842 13 9.99609C13 10.5138 12.6067 10.9399 12.1025 10.9912L12 10.9961H1C0.447715 10.9961 0 10.5484 0 9.99609C0 9.44381 0.447715 8.99609 1 8.99609H12L12.1025 9.00098ZM26.3525 2.21484C24.8556 2.76852 23.5532 3.72228 22.5586 4.94238L23.502 8.03906L26.1064 9.0957L28.875 6.96289V4.24512L26.3525 2.21484ZM30.126 4.22461V6.96289L32.8945 9.0957L35.499 8.03906L36.4424 4.94238C35.4479 3.72233 34.135 2.76907 32.6279 2.20508L30.126 4.22461ZM18 0.996094C18.5523 0.996094 19 1.44381 19 1.99609C19 2.54838 18.5523 2.99609 18 2.99609H8C7.44772 2.99609 7 2.54838 7 1.99609C7 1.44381 7.44772 0.996094 8 0.996094H18Z" fill="#353536"/>
</svg>
