<svg width="24" height="24" viewBox="0 0 36 36" fill="none" xmlns="http://www.w3.org/2000/svg">
<path d="M19.0586 25.9746C17.0664 25.9746 15.709 25.2031 15.0938 23.7871L11.7832 26.707C11.1191 27.3027 10.709 27.5664 10.1621 27.5664C9.38086 27.5664 8.92188 27.0195 8.92188 26.1602V23.748H8.52148C5.68945 23.748 4 22.0684 4 19.1582V11.5898C4 8.67969 5.65039 7 8.58984 7H21.041C23.9805 7 25.6309 8.68945 25.6309 11.5898V11.873H28.2676C31.0801 11.873 32.6133 13.4355 32.6133 16.1895V21.7168C32.6133 24.4414 31.0996 25.9746 28.3262 25.9746H28.1504V28.2109C28.1504 29.0605 27.6914 29.6074 26.9199 29.6074C26.3926 29.6074 25.9434 29.3145 25.3086 28.7578L22.0566 25.9746H19.0586ZM10.6406 22.6348V25.418L13.7363 22.3516C14.0684 22.0098 14.3223 21.8828 14.7129 21.8438C14.7129 21.8047 14.7031 21.7656 14.7031 21.7266V16.1895C14.7031 13.4355 16.2461 11.873 19.0586 11.873H23.7168V11.6484C23.7168 9.85156 22.8281 8.91406 20.9824 8.91406H8.63867C6.79297 8.91406 5.91406 9.85156 5.91406 11.6484V19.0996C5.91406 20.8965 6.79297 21.834 8.63867 21.834H9.83984C10.3965 21.834 10.6406 22.0488 10.6406 22.6348ZM19.2051 24.0996H22.0176C22.4668 24.0996 22.8477 24.2559 23.2188 24.6074L26.4316 27.5176V24.9785C26.4316 24.3926 26.793 24.0996 27.2715 24.0996H28.1211C29.9082 24.0996 30.7188 23.2207 30.7188 21.5117V16.3359C30.7188 14.627 29.9082 13.748 28.1211 13.748H19.2051C17.418 13.748 16.6074 14.627 16.6074 16.3359V21.5117C16.6074 23.2207 17.418 24.0996 19.2051 24.0996ZM20.3184 17.9961C19.8691 17.9961 19.5469 17.6445 19.5469 17.2148C19.5469 16.7656 19.8691 16.4336 20.3184 16.4336H27.0566C27.5059 16.4336 27.8379 16.7656 27.8379 17.2148C27.8379 17.6445 27.5059 17.9961 27.0566 17.9961H20.3184ZM20.3184 21.5605C19.8691 21.5605 19.5469 21.2285 19.5469 20.7891C19.5469 20.3496 19.8691 19.998 20.3184 19.998H25.2109C25.6504 19.998 25.9922 20.3496 25.9922 20.7891C25.9922 21.2285 25.6504 21.5605 25.2109 21.5605H20.3184Z" fill="currentColor"/>
</svg>
