<svg width="24" height="24" viewBox="0 0 36 36" fill="none" xmlns="http://www.w3.org/2000/svg">
<path d="M23.668 18.0762C21.0791 18.0762 18.9736 15.7988 18.9736 12.9951C18.9736 10.2344 21.0898 8 23.668 8C26.2676 8 28.373 10.2021 28.373 12.9736C28.373 15.7881 26.2676 18.0762 23.668 18.0762ZM11.2178 18.1943C8.97266 18.1943 7.13574 16.1963 7.13574 13.7256C7.13574 11.3301 8.9834 9.34277 11.2178 9.34277C13.4844 9.34277 15.3105 11.2979 15.3105 13.7041C15.3105 16.1855 13.4844 18.1943 11.2178 18.1943ZM23.668 16.2178C25.1719 16.2178 26.4287 14.7891 26.4287 12.9736C26.4287 11.2012 25.1826 9.8584 23.668 9.8584C22.1641 9.8584 20.918 11.2227 20.918 12.9951C20.918 14.8105 22.1855 16.2178 23.668 16.2178ZM11.2178 16.3574C12.4531 16.3574 13.4951 15.1865 13.4951 13.7041C13.4951 12.2969 12.4746 11.1689 11.2178 11.1689C9.99316 11.1689 8.96191 12.3184 8.96191 13.7256C8.96191 15.1865 10.0039 16.3574 11.2178 16.3574ZM5.30957 28.0664C3.77344 28.0664 3 27.4111 3 26.1328C3 22.5664 6.67383 19.3223 11.2178 19.3223C12.8936 19.3223 14.5908 19.7734 15.9551 20.6221C15.375 20.998 14.9238 21.4492 14.5693 21.9541C13.6348 21.4385 12.4209 21.1377 11.2178 21.1377C7.80176 21.1377 4.90137 23.501 4.90137 25.9717C4.90137 26.1543 4.9873 26.251 5.19141 26.251H12.7539C12.6787 26.96 13.0762 27.7227 13.6562 28.0664H5.30957ZM16.9648 28.0664C15.1172 28.0664 14.2256 27.4756 14.2256 26.2188C14.2256 23.2861 17.8994 19.333 23.668 19.333C29.4365 19.333 33.1104 23.2861 33.1104 26.2188C33.1104 27.4756 32.2188 28.0664 30.3604 28.0664H16.9648ZM16.6104 26.208H30.7256C30.9727 26.208 31.0693 26.1328 31.0693 25.9287C31.0693 24.2852 28.416 21.1914 23.668 21.1914C18.9199 21.1914 16.2559 24.2852 16.2559 25.9287C16.2559 26.1328 16.3525 26.208 16.6104 26.208Z" fill="currentColor"/>
</svg>
