<svg width="29" height="23" viewBox="0 0 29 23" fill="none" xmlns="http://www.w3.org/2000/svg">
<path d="M15.0586 18.9746C13.0664 18.9746 11.709 18.2031 11.0938 16.7871L7.7832 19.707C7.11914 20.3027 6.70898 20.5664 6.16211 20.5664C5.38086 20.5664 4.92188 20.0195 4.92188 19.1602V16.748H4.52148C1.68945 16.748 0 15.0684 0 12.1582V4.58984C0 1.67969 1.65039 0 4.58984 0H17.041C19.9805 0 21.6309 1.68945 21.6309 4.58984V4.87305H24.2676C27.0801 4.87305 28.6133 6.43555 28.6133 9.18945V14.7168C28.6133 17.4414 27.0996 18.9746 24.3262 18.9746H24.1504V21.2109C24.1504 22.0605 23.6914 22.6074 22.9199 22.6074C22.3926 22.6074 21.9434 22.3145 21.3086 21.7578L18.0566 18.9746H15.0586ZM6.64062 15.6348V18.418L9.73633 15.3516C10.0684 15.0098 10.3223 14.8828 10.7129 14.8438C10.7129 14.8047 10.7031 14.7656 10.7031 14.7266V9.18945C10.7031 6.43555 12.2461 4.87305 15.0586 4.87305H19.7168V4.64844C19.7168 2.85156 18.8281 1.91406 16.9824 1.91406H4.63867C2.79297 1.91406 1.91406 2.85156 1.91406 4.64844V12.0996C1.91406 13.8965 2.79297 14.834 4.63867 14.834H5.83984C6.39648 14.834 6.64062 15.0488 6.64062 15.6348ZM15.2051 17.0996H18.0176C18.4668 17.0996 18.8477 17.2559 19.2188 17.6074L22.4316 20.5176V17.9785C22.4316 17.3926 22.793 17.0996 23.2715 17.0996H24.1211C25.9082 17.0996 26.7188 16.2207 26.7188 14.5117V9.33594C26.7188 7.62695 25.9082 6.74805 24.1211 6.74805H15.2051C13.418 6.74805 12.6074 7.62695 12.6074 9.33594V14.5117C12.6074 16.2207 13.418 17.0996 15.2051 17.0996ZM16.3184 10.9961C15.8691 10.9961 15.5469 10.6445 15.5469 10.2148C15.5469 9.76562 15.8691 9.43359 16.3184 9.43359H23.0566C23.5059 9.43359 23.8379 9.76562 23.8379 10.2148C23.8379 10.6445 23.5059 10.9961 23.0566 10.9961H16.3184ZM16.3184 14.5605C15.8691 14.5605 15.5469 14.2285 15.5469 13.7891C15.5469 13.3496 15.8691 12.998 16.3184 12.998H21.2109C21.6504 12.998 21.9922 13.3496 21.9922 13.7891C21.9922 14.2285 21.6504 14.5605 21.2109 14.5605H16.3184Z" fill="#353536"/>
</svg>
