<svg width="24" height="24" viewBox="0 0 36 36" fill="none" xmlns="http://www.w3.org/2000/svg">
<path d="M7.00586 18.7812C6.38086 18.7812 6 18.3516 6 17.8438C6 17.5703 6.12695 17.2871 6.38086 17.0723L16.5566 8.52734C16.9863 8.17578 17.4551 8 17.9238 8C18.3926 8 18.8613 8.17578 19.291 8.52734L24.1152 12.5898V10.8516C24.1152 10.4219 24.4082 10.1387 24.8477 10.1387H26.166C26.5957 10.1387 26.8789 10.4219 26.8789 10.8516V14.9043L29.4668 17.0723C29.7207 17.2871 29.8477 17.5703 29.8477 17.8438C29.8477 18.3516 29.4668 18.7812 28.8516 18.7812C28.5488 18.7812 28.2754 18.625 28.041 18.4199L26.8789 17.4531V26.623C26.8789 28.0684 26.0098 28.918 24.5352 28.918H11.3223C9.83789 28.918 8.96875 28.0684 8.96875 26.623V17.4531L7.80664 18.4199C7.57227 18.625 7.30859 18.7812 7.00586 18.7812ZM20.7461 21.3301V27.0039H24.0273C24.6328 27.0039 24.9648 26.6621 24.9648 26.0469V15.8418L18.3438 10.2852C18.207 10.168 18.0605 10.1191 17.9238 10.1191C17.7871 10.1191 17.6406 10.168 17.5137 10.2852L10.8828 15.8418V26.0469C10.8828 26.6621 11.2148 27.0039 11.8203 27.0039H15.1016V21.3301C15.1016 20.8711 15.4043 20.5781 15.8633 20.5781H19.9941C20.4531 20.5781 20.7461 20.8711 20.7461 21.3301Z" fill="currentColor"/>
</svg>
