<svg xmlns="http://www.w3.org/2000/svg" fill="none" viewBox="0 0 24 24" height="24" width="24">
  <g id="person-celebrate">
    <path id="Union" fill="#000000" d="M19.7832 15.2832c0.539 -0.1195 1.0736 0.2208 1.1934 0.7598 0.1193 0.5388 -0.2211 1.0734 -0.7598 1.1933 -1.0253 0.2278 -2.7648 0.5291 -5.2168 0.6758V20.5c0 0.5522 -0.4479 0.9998 -1 1h-4c-0.55215 -0.0002 -1 -0.4478 -1 -1v-2.5879c-2.45196 -0.1467 -4.19154 -0.448 -5.2168 -0.6758 -0.53879 -0.1198 -0.87909 -0.6545 -0.75976 -1.1933 0.11981 -0.539 0.65438 -0.8794 1.19336 -0.7598 1.26394 0.2809 3.85843 0.7178 7.7832 0.7178 3.9247 0 6.5193 -0.4369 7.7832 -0.7178M12 11c1.1044 0.0002 2 0.8955 2 2s-0.8956 1.9998 -2 2c-1.1044 -0.0002 -2 -0.8955 -2 -2s0.8956 -1.9998 2 -2M3.5 9c0.82843 0 1.5 0.67157 1.5 1.5 0 0.8284 -0.67157 1.5 -1.5 1.5S2 11.3284 2 10.5C2 9.67157 2.67157 9 3.5 9m17 0c0.8284 0 1.5 0.67157 1.5 1.5 0 0.8284 -0.6716 1.5 -1.5 1.5s-1.5 -0.6716 -1.5 -1.5c0 -0.82843 0.6716 -1.5 1.5 -1.5m-14 -4.5C7.32843 4.5 8 5.17157 8 6s-0.67157 1.5 -1.5 1.5S5 6.82843 5 6s0.67157 -1.5 1.5 -1.5m11 0c0.8284 0 1.5 0.67157 1.5 1.5s-0.6716 1.5 -1.5 1.5S16 6.82843 16 6s0.6716 -1.5 1.5 -1.5m-5.5 -2c0.8284 0 1.5 0.67157 1.5 1.5s-0.6716 1.5 -1.5 1.5 -1.5 -0.67157 -1.5 -1.5 0.6716 -1.5 1.5 -1.5" stroke-width="1"></path>
  </g>
</svg>