<svg xmlns="http://www.w3.org/2000/svg" fill="none" viewBox="0 0 24 24" height="24" width="24">
  <g id="target-alt">
    <path id="Union" fill="#000000" d="M12 2c5.5228 0 10 4.47715 10 10 0 5.5228 -4.4772 10 -10 10 -5.52285 0 -10 -4.4772 -10 -10C2 6.47715 6.47715 2 12 2m1 3c0 0.55228 -0.4477 1 -1 1s-1 -0.44772 -1 -1v-0.93652C7.38148 4.51479 4.51582 7.3815 4.06445 11H5c0.55228 0 1 0.4477 1 1s-0.44772 1 -1 1h-0.93555C4.51581 16.6185 7.38154 19.4842 11 19.9355V19c0 -0.5523 0.4477 -1 1 -1s1 0.4477 1 1v0.9355c3.6185 -0.4513 6.4842 -3.317 6.9355 -6.9355H19c-0.5523 0 -1 -0.4477 -1 -1s0.4477 -1 1 -1h0.9355C19.4842 7.3815 16.6185 4.51479 13 4.06348zm-1 3c0.5523 0 1 0.44772 1 1v2h2c0.5523 0 1 0.4477 1 1s-0.4477 1 -1 1h-2v2c0 0.5523 -0.4477 1 -1 1s-1 -0.4477 -1 -1v-2H9l-0.10254 -0.0049C8.39333 12.9438 8 12.5177 8 12s0.39333 -0.9438 0.89746 -0.9951L9 11h2V9c0 -0.55228 0.4477 -1 1 -1" stroke-width="1"></path>
  </g>
</svg>