<svg width="1306" height="1165" viewBox="0 0 1306 1165" fill="none" xmlns="http://www.w3.org/2000/svg">
<path d="M0 667.914L729.974 170.564L772.17 235.001L234.318 601.453L517.633 1034.1L452.473 1078.5L169.158 645.849L42.1959 732.351L0 667.914Z" fill="white"/>
<path d="M713.241 388.306L775.714 345.741L822.732 417.542L870.427 385.046L904.786 437.516L857.092 470.012L1007.79 700.143L945.318 742.708L794.619 512.576L732.368 554.99L698.008 502.52L760.259 460.106L713.241 388.306Z" fill="white"/>
<path d="M783.713 133.949L848.874 89.5539L1132.19 522.201L1263.63 432.646L1305.83 497.083L1109.22 631.033L783.713 133.949Z" fill="white"/>
<path d="M729.011 890.081C708.112 904.32 685.838 912.174 662.19 913.643C638.34 914.805 615.613 910.099 594.009 899.525C572.703 888.748 555.018 872.619 540.953 851.141C526.887 829.662 519.155 806.974 517.755 783.078C516.654 758.979 521.297 736.069 531.684 714.349C541.87 692.322 557.412 674.188 578.311 659.949C599.509 645.507 621.932 637.551 645.581 636.082C669.229 634.613 691.706 639.268 713.012 650.045C734.415 660.312 752.149 676.185 766.215 697.664C780.28 719.143 787.964 742.085 789.266 766.491C790.867 790.694 786.574 813.809 776.388 835.836C766.001 857.557 750.209 875.638 729.011 890.081ZM697.063 841.293C709.304 832.953 718.243 822.868 723.882 811.039C729.618 798.7 731.708 785.738 730.153 772.155C728.896 758.367 724.048 745.03 715.609 732.143C707.17 719.255 697.048 709.733 685.245 703.575C673.441 697.418 661.103 694.731 648.231 695.513C635.158 695.989 622.501 700.397 610.26 708.737C598.317 716.874 589.478 727.112 583.742 739.451C578.104 751.28 575.812 763.935 576.868 777.415C578.222 790.692 583.119 803.774 591.558 816.662C599.997 829.549 610.07 839.327 621.776 845.994C633.781 852.459 646.32 855.453 659.393 854.977C672.564 853.991 685.12 849.429 697.063 841.293Z" fill="white"/>
</svg>
